<svg width="612" height="612" xmlns="http://www.w3.org/2000/svg">

 <g>
  <title>background</title>
  <rect fill="none" id="canvas_background" height="602" width="802" y="-1" x="-1"/>
 </g>
 <g>
  <title>Layer 1</title>
  <g id="svg_1">
   <g fill="none" id="_x34__11_">
    <g id="svg_2">
     <path fill="#f9fcfc" id="svg_3" d="m124.172,305.975l218.193,-218.194c20.079,-20.079 20.079,-52.644 0,-72.722c-20.079,-20.079 -52.644,-20.079 -72.723,0l-254.58,254.58c-20.079,20.079 -20.079,52.644 0,72.723l254.58,254.58c20.079,20.078 52.644,20.078 72.723,0c20.079,-20.079 20.079,-52.644 0,-72.723l-218.193,-218.244zm307.223,-0.281l165.371,-165.982c20.308,-20.359 20.308,-53.408 0,-73.768c-20.309,-20.359 -53.204,-20.359 -73.513,0l-202.114,202.879c-20.309,20.359 -17.047,35.266 3.032,55.345l199.082,221.302c20.309,20.359 53.204,20.359 73.513,0c20.308,-20.359 20.308,-53.408 0,-73.768l-165.371,-166.008z"/>
    </g>
   </g>
  </g>
  <g id="svg_4"/>
  <g id="svg_5"/>
  <g id="svg_6"/>
  <g id="svg_7"/>
  <g id="svg_8"/>
  <g id="svg_9"/>
  <g id="svg_10"/>
  <g id="svg_11"/>
  <g id="svg_12"/>
  <g id="svg_13"/>
  <g id="svg_14"/>
  <g id="svg_15"/>
  <g id="svg_16"/>
  <g id="svg_17"/>
  <g id="svg_18"/>
 </g>
</svg>